<?xml version="1.0" encoding="utf-8"?>
<!-- Generator: Adobe Illustrator 24.0.3, SVG Export Plug-In . SVG Version: 6.00 Build 0)  -->
<svg version="1.1" id="Layer_1" xmlns="http://www.w3.org/2000/svg" xmlns:xlink="http://www.w3.org/1999/xlink" x="0px" y="0px"
	 viewBox="0 0 360 77.69" style="enable-background:new 0 0 360 77.69;" xml:space="preserve">
<style type="text/css">
	.st0{fill:#F49AC1;}
</style>
<g>
	<path class="st0" d="M144.18,77.69H92.75c-4.32,0-7.86-3.5-7.85-7.82c0-0.04,0-0.07,0-0.11c0.12-16.48,0.05-32.95,0.05-49.43
		c0-4.5,2.23-6.74,6.72-6.74c16.61,0,33.22,0.06,49.83-0.05c2.39-0.02,4.32,0.45,5.74,1.77c1.17,1.09,1.78,2.65,1.78,4.24v52.02
		c0,1.67-0.62,3.31-1.82,4.47C146.41,76.83,145.42,77.39,144.18,77.69z M104.88,69.13c0.39-0.55,0.28-1.18,0.28-1.79
		c0-8.96,0-17.92,0-26.87c0-0.61,0.11-1.24-0.28-1.79c-0.36-0.98-0.98-1.56-2.11-1.54c-2.19,0.03-4.38,0.01-6.58,0.01
		c-1.11,0-2,0.89-2,2c0,9.82-0.01,19.64,0.01,29.47c0,1.49,0.59,1.98,2.14,1.99c2.04,0.02,4.08-0.05,6.12,0.03
		C103.67,70.67,104.48,70.28,104.88,69.13z M131.32,51.49c-0.26,0.43-0.24,11.32-0.24,16.28c0,0.47-0.02,0.95,0.29,1.36
		c0.38,1.19,1.18,1.59,2.54,1.47c2.05-0.18,4.11-0.23,6.16-0.02c1.53,0.16,2.26-0.48,2.24-1.78c-0.07-7.16,0.34-14.34-0.44-21.48
		c-0.59-5.39-3.43-9.06-7.89-10.23c-2.7-0.71-5.44-0.64-8.16,0.02c-2.28,0.55-4.03,1.92-5.73,4.02c0-0.79,0-1.15,0-1.52
		c-0.02-1.37-1.13-2.47-2.5-2.47c-1.95-0.01-3.89,0.03-5.84-0.02c-1.06-0.03-1.85,0.28-2.32,1.26c-0.38,0.55-0.28,1.19-0.28,1.79
		c0,9.15,0,18.3,0,27.45c0,0.61-0.11,1.24,0.29,1.79c0.47,0.89,1.18,1.23,2.2,1.2c2.13-0.06,4.27-0.01,6.4-0.02
		c1.6-0.01,2.03-0.41,2.04-2.03c0.02-4.17,0-8.35,0.01-12.52c0-1.47-0.11-2.94,0.15-4.4c0.42-2.38,1.27-4.53,3.68-5.53
		C127.71,44.55,131.03,46.99,131.32,51.49z M106.31,27.48c-0.02-3.85-3.03-6.82-6.89-6.8c-3.75,0.02-6.8,3.09-6.77,6.8
		c0.03,3.79,3.18,6.91,6.91,6.86C103.28,34.28,106.32,31.19,106.31,27.48z"/>
	<path class="st0" d="M129.29,52.95c0.15,4.71,0.09,9.43,0.04,14.14c-0.24-0.33-0.23-0.71-0.23-1.09c0-3.98,0-7.96,0-11.94
		C129.1,53.68,129.08,53.3,129.29,52.95z"/>
</g>
</svg>
