<?xml version="1.0" encoding="utf-8"?>
<!-- Generator: Adobe Illustrator 24.0.3, SVG Export Plug-In . SVG Version: 6.00 Build 0)  -->
<svg version="1.1" id="Layer_1" xmlns="http://www.w3.org/2000/svg" xmlns:xlink="http://www.w3.org/1999/xlink" x="0px" y="0px"
	 viewBox="0 0 360 91.44" style="enable-background:new 0 0 360 91.44;" xml:space="preserve">
<style type="text/css">
	.st0{fill:#F49AC1;}
</style>
<g>
	<path class="st0" d="M150.03,49.59c0,5.26,0,10.52,0,15.78c-0.01,9.65-7.23,16.85-16.91,16.85c-10.63,0.01-21.26,0.01-31.89,0
		c-7.76-0.01-14.24-5.02-16.12-12.52c-0.33-1.33-0.5-2.73-0.5-4.1c-0.04-10.74-0.03-21.48-0.02-32.22
		c0.01-9.3,7.32-16.59,16.66-16.6c10.69-0.01,21.37-0.01,32.05,0c9.44,0.01,16.71,7.27,16.72,16.7
		C150.03,38.85,150.03,44.22,150.03,49.59z M117.33,21.42c-5.26,0-10.52-0.01-15.78,0c-7.31,0.01-12.32,5-12.32,12.26
		c-0.01,10.57-0.01,21.15,0,31.72c0,7.07,5.08,12.16,12.1,12.16c10.52,0,21.04,0,31.55,0c7.55,0,12.48-4.91,12.49-12.43
		c0.01-10.52,0.01-21.04,0-31.55c0-7.07-5.05-12.14-12.1-12.16C127.96,21.41,122.65,21.42,117.33,21.42z"/>
	<path class="st0" d="M133.64,49.54c-0.04,9-7.41,16.31-16.42,16.29c-8.95-0.02-16.36-7.53-16.25-16.47
		c0.1-8.94,7.51-16.29,16.34-16.21C126.38,33.25,133.68,40.57,133.64,49.54z M129.06,49.41c-0.05-6.35-5.54-11.76-11.84-11.68
		c-6.37,0.08-11.8,5.59-11.68,11.86c0.12,6.42,5.56,11.78,11.85,11.67C123.8,61.14,129.12,55.75,129.06,49.41z"/>
	<path class="st0" d="M135.9,35.4c-2.59-0.01-4.54-2.05-4.5-4.69c0.04-2.48,2.07-4.53,4.54-4.57c2.52-0.05,4.79,2.25,4.72,4.78
		S138.52,35.41,135.9,35.4z"/>
</g>
</svg>
