<?xml version="1.0" encoding="utf-8"?>
<!-- Generator: Adobe Illustrator 24.0.3, SVG Export Plug-In . SVG Version: 6.00 Build 0)  -->
<svg version="1.1" id="Layer_1" xmlns="http://www.w3.org/2000/svg" xmlns:xlink="http://www.w3.org/1999/xlink" x="0px" y="0px"
	 viewBox="0 0 360 84.88" style="enable-background:new 0 0 360 84.88;" xml:space="preserve">
<style type="text/css">
	.st0{fill:#F49AC1;}
</style>
<path class="st0" d="M114.49,18.05c1.5,0,3.01,0,4.51,0c0.82,0.13,1.65,0.26,2.47,0.38c14.3,2.15,25.27,12.35,28.32,26.35
	c0.32,1.48,0.52,2.99,0.77,4.48c0,1.49,0,2.97,0,4.46c-0.1,0.37-1.29,14.99-12.4,23.54c-5.79,4.79-12.57,7.21-20.09,7.58
	c-3.76,0.19-5.47-0.45-9.81-1.08c2.16-5.83,3.28-11,4.67-16.25c1.66,0.91,3.11,2.06,4.76,2.56c5.1,1.54,9.63-0.01,13.49-3.32
	c5.54-4.76,7.47-11.07,7.15-18.13c-0.29-6.2-3.18-11.05-8.32-14.54c-5.28-3.59-11.17-4.23-17.36-3.3
	c-11.23,1.68-18.59,10.88-17.38,22.02c0.44,4.03,2.07,7.65,5.5,10.17c1.86,1.37,2.16,1.22,2.71-0.94c0.11-0.43,0.58-3.37-0.11-4.45
	c-1.93-3.01-2.43-6.36-1.63-9.83c1.67-7.2,7.64-11.56,15.3-11.33c4.32,0.13,7.95,1.6,10.78,4.95c4.88,5.77,2.92,17.38-1.95,21.42
	c-1.04,0.87-2.31,1.65-3.6,2c-5,1.34-8.35-1.93-6.87-6.51c0.52-1.6,1.08-3.19,1.43-4.82c0.44-2.11,0.97-4.26,0.94-6.39
	c-0.04-2.86-2.9-4.65-5.57-3.51c-1.33,0.57-2.63,1.68-3.43,2.88c-1.79,2.69-1.55,5.72-0.84,8.74c0.21,0.91,0.21,1.91,0.11,2.84
	c-0.09,0.92-0.46,1.82-0.66,2.73c-1.09,4.91-2.32,9.8-3.2,14.76c-0.39,2.2-0.75,4.05-1.57,6.28C89.11,75.6,81.3,61.5,83.29,46.92
	c1.88-13.75,12.52-25.13,26.21-27.99C111.16,18.6,112.83,18.35,114.49,18.05z"/>
</svg>
